<svg width="144" height="46" viewBox="0 0 144 46" fill="none" xmlns="http://www.w3.org/2000/svg">
<path d="M52.7063 3.56318L42.5562 35.592H37.3187L28.5781 8.17897L18.825 35.592H13.55L4.08125 3.56318L0 3.13287V0.269287H16.2188V3.13287L12.75 3.34648C12.4125 3.39292 12.1344 3.52603 11.9187 3.73964C11.7031 3.95325 11.5938 4.22877 11.5938 4.56312C11.5938 4.73029 11.6063 4.86031 11.6313 4.95628L17.7719 27.7504L27.3094 0.269287H32.5844L41.1469 27.7535L47.975 4.95937C48 4.88817 48.0125 4.76744 48.0125 4.60027C48.0125 4.29069 47.9156 4.01517 47.725 3.77679C47.5312 3.51365 47.2687 3.37125 46.9312 3.34648L43.5344 3.13287V0.269287H56.4656V3.13287L52.7094 3.56318H52.7063Z" fill="#0F64AE"/>
<path fill-rule="evenodd" clip-rule="evenodd" d="M73.1936 15.7636C75.5467 15.7636 77.4561 13.8318 77.4561 11.4481C77.4561 9.06436 75.5467 7.1326 73.1936 7.1326C70.8404 7.1326 68.9311 9.06436 68.9311 11.4481C68.9311 13.8318 70.8404 15.7636 73.1936 15.7636ZM73.0873 22.5155C79.9061 22.5155 85.4342 17.5344 85.4342 11.3924C85.4342 5.25038 79.9029 0.269287 73.0842 0.269287C66.2654 0.269287 60.7373 5.25038 60.7373 11.3924C60.7373 17.5344 66.2654 22.5155 73.0842 22.5155H73.0873Z" fill="#09AA4A"/>
<path d="M23.1524 46C20.4243 46 18.1368 45.5264 16.2931 44.5791C14.4837 43.5946 13.5806 42.1922 13.5806 40.3657C13.5806 39.3472 13.8806 38.5206 14.4837 37.8891C15.1212 37.2576 15.9368 36.9418 16.9306 36.9418C17.5681 36.9418 18.0837 37.1183 18.4712 37.4681C18.8962 37.7838 19.1087 38.0129 19.1087 38.1522C19.1087 38.2575 18.8962 38.5021 18.4712 38.889C18.0806 39.2389 17.8868 39.8209 17.8868 40.6289C17.8868 41.6133 18.3462 42.4368 19.2681 43.1055C20.2243 43.737 21.6618 44.0528 23.5743 44.0528C25.2399 44.0528 26.5337 43.703 27.4556 43.0002C28.4118 42.2634 28.8899 41.2449 28.8899 39.9447C28.8899 38.8921 28.5368 38.0841 27.8274 37.5207C27.1524 36.9232 26.2681 36.4496 25.1681 36.0998C24.1056 35.7499 22.9524 35.397 21.7118 35.0472C20.5056 34.6974 19.3556 34.2578 18.2556 33.7315C17.1556 33.2052 16.2524 32.4839 15.5431 31.5706C14.8681 30.6233 14.5337 29.3757 14.5337 27.831C14.5337 26.2862 15.0118 24.9519 15.9681 23.9334C16.9243 22.9149 18.1493 22.1595 19.6368 21.6673C21.1243 21.141 22.6337 20.8779 24.1556 20.8779C25.4681 20.8779 26.7087 21.0698 27.8774 21.4568C29.0462 21.8066 30.0056 22.3515 30.7493 23.0882C31.5306 23.825 31.9181 24.7569 31.9181 25.8806C31.9181 26.7598 31.6337 27.5492 31.0681 28.252C30.4993 28.9547 29.7212 29.3045 28.7274 29.3045C28.0899 29.3045 27.5587 29.1467 27.1337 28.8309C26.7431 28.4811 26.5493 28.2334 26.5493 28.0941C26.5493 28.0229 26.6743 27.9022 26.9212 27.7257C27.2056 27.5152 27.4712 27.2521 27.7181 26.9363C27.9649 26.5865 28.0899 26.1469 28.0899 25.6206C28.0181 24.6021 27.5212 23.8467 26.6024 23.3545C25.6806 22.8623 24.6524 22.6177 23.5181 22.6177C22.2774 22.6177 21.1243 22.9149 20.0618 23.5124C18.9993 24.1098 18.4681 24.9705 18.4681 26.0942C18.4681 27.1127 18.6806 27.9022 19.1056 28.4656C19.5649 29.029 20.2743 29.5182 21.2337 29.9392C22.2274 30.3261 23.5024 30.7657 25.0618 31.2549C26.6212 31.7471 27.9868 32.2548 29.1556 32.7811C30.3618 33.3074 31.2837 34.0101 31.9212 34.8893C32.5962 35.7314 32.9306 36.8923 32.9306 38.3659C32.9306 39.8394 32.5056 41.1582 31.6556 42.3161C30.8056 43.4739 29.6337 44.3871 28.1462 45.0558C26.6931 45.6873 25.0274 46.0031 23.1462 46.0031L23.1524 46Z" fill="#1A0029"/>
<path d="M37.2094 45.5263C36.925 45.5263 36.7125 45.4211 36.5719 45.2106C36.4313 44.966 36.3594 44.7183 36.3594 44.4738C36.3938 43.9475 36.5188 43.6658 36.7313 43.6317C36.9781 43.5605 37.2625 43.5265 37.5813 43.5265C38.575 43.5265 39.2469 43.3686 39.6031 43.0528C39.9938 42.703 40.2063 42.2448 40.2406 41.6845C40.3125 41.1211 40.3469 40.5422 40.3469 39.9447V14.2901C40.3469 13.6585 40.3125 13.0796 40.2406 12.5502C40.2063 11.9868 40.0094 11.5503 39.6563 11.2345C39.3031 10.8847 38.6281 10.7082 37.6344 10.7082C37.3156 10.7082 37.0125 10.6742 36.7313 10.603C36.4844 10.4977 36.3594 10.182 36.3594 9.65569C36.3594 9.12941 36.6438 8.81364 37.2094 8.70838C38.8406 8.46382 40.0812 8.21616 40.9312 7.97159C41.8187 7.72702 42.4906 7.51651 42.9531 7.34005C43.4125 7.16359 43.8219 7.05834 44.175 7.02429C44.4594 6.99023 44.6875 7.04286 44.8656 7.18217C45.0781 7.32148 45.1844 7.60319 45.1844 8.02422V32.0969C46.7437 31.7811 48.0219 31.131 49.0125 30.1466L53.4781 25.6175C53.6906 25.3729 53.9219 25.1098 54.1687 24.828C54.4531 24.5463 54.6125 24.2832 54.6469 24.0386C54.7187 23.7941 54.575 23.599 54.2219 23.4597C53.8687 23.3204 53.1937 23.2833 52.2 23.3545C51.8094 23.2833 51.5969 22.9675 51.5625 22.4072C51.5625 22.1254 51.6344 21.8809 51.775 21.6704C51.9531 21.4598 52.1656 21.3546 52.4125 21.3546C53.2281 21.3886 54.2031 21.4258 55.3375 21.4598C56.5063 21.4939 57.4813 21.5125 58.2625 21.5125C58.8656 21.5125 59.45 21.4939 60.0187 21.4598C60.6219 21.4258 61.225 21.3886 61.8281 21.3546C62.1125 21.3546 62.325 21.4598 62.4656 21.6704C62.6063 21.8809 62.6781 22.1254 62.6781 22.4072C62.6438 22.8622 62.5375 23.1439 62.3594 23.2492C62.2188 23.3204 62.0219 23.3545 61.775 23.3545C60.3937 23.3545 59.275 23.599 58.425 24.0912C57.575 24.5835 56.6156 25.3729 55.5531 26.4626L51.0875 30.9917C51.5125 31.5551 52.0812 32.2393 52.7906 33.0473C53.5 33.8553 54.2438 34.7159 55.025 35.6292C55.8406 36.5084 56.6031 37.3504 57.3125 38.1584C58.0219 38.9324 58.5875 39.5639 59.0156 40.0561C60.0438 41.1458 60.8938 41.9879 61.5688 42.5854C62.2781 43.1488 63.1469 43.4646 64.175 43.5327C64.4594 43.5667 64.725 43.6193 64.9719 43.6905C65.2188 43.7246 65.3438 43.9877 65.3438 44.48C65.3438 44.7245 65.2719 44.9722 65.1313 45.2168C65.025 45.4273 64.8125 45.5325 64.4938 45.5325C63.9969 45.4985 63.5906 45.4613 63.2719 45.4273C62.9531 45.4273 62.5969 45.4087 62.2094 45.3746H57.425C56.1844 44.0404 54.75 42.443 53.1187 40.5824C51.525 38.7218 49.9281 36.8768 48.3344 35.0503C47.9812 34.6633 47.5188 34.3135 46.9531 33.9977C46.4219 33.6479 45.8375 33.5055 45.1969 33.5767V39.9509C45.1969 40.5483 45.2156 41.1273 45.25 41.6907C45.3219 42.2541 45.5344 42.7092 45.8875 43.059C46.2781 43.3748 46.95 43.5327 47.9094 43.5327C48.2625 43.5327 48.5469 43.5667 48.7594 43.6379C49.0063 43.672 49.15 43.9537 49.1844 44.48C49.1844 44.7245 49.1125 44.9722 48.9719 45.2168C48.8313 45.4273 48.6187 45.5325 48.3344 45.5325C47.3062 45.4613 46.35 45.4087 45.4625 45.3746H40.0375C39.1875 45.4087 38.2469 45.4613 37.2188 45.5325L37.2094 45.5263Z" fill="#1A0029"/>
<path d="M83.1156 45.5263C82.8688 45.5263 82.6562 45.4211 82.4781 45.2106C82.3375 44.966 82.2656 44.7183 82.2656 44.4738C82.3 43.9475 82.425 43.6658 82.6375 43.6317C82.8844 43.5605 83.1688 43.5265 83.4875 43.5265C84.4813 43.5265 85.1531 43.3686 85.5094 43.0528C85.9 42.703 86.1125 42.2448 86.1469 41.6845C86.2188 41.121 86.2531 40.5421 86.2531 39.9447V14.2374C86.2531 13.6059 86.2188 13.027 86.1469 12.4976C86.1125 11.9342 85.9156 11.4977 85.5625 11.1819C85.2094 10.8321 84.5344 10.6556 83.5406 10.6556C83.2219 10.6556 82.9188 10.6216 82.6375 10.5503C82.3906 10.4451 82.2656 10.1293 82.2656 9.60304C82.2656 9.07676 82.55 8.761 83.1156 8.65574C84.7469 8.41117 85.9875 8.16351 86.8375 7.91895C87.725 7.67438 88.3969 7.46387 88.8594 7.28741C89.3188 7.11095 89.7281 7.0057 90.0813 6.97164C90.3656 6.93759 90.5938 6.99022 90.7719 7.12953C90.9844 7.26884 91.0906 7.55055 91.0906 7.97158V39.9478C91.0906 40.5452 91.1094 41.1241 91.1438 41.6876C91.2156 42.251 91.4281 42.7061 91.7813 43.0559C92.1719 43.3717 92.8625 43.5296 93.8562 43.5296C94.175 43.5296 94.4406 43.5636 94.6531 43.6348C94.9 43.6689 95.0437 43.9506 95.0781 44.4769C95.0781 44.7214 95.0063 44.9691 94.8656 45.2137C94.725 45.4242 94.5125 45.5294 94.2281 45.5294C93.2 45.4582 92.2437 45.4056 91.3562 45.3715H85.9313C85.0813 45.4056 84.1406 45.4582 83.1125 45.5294L83.1156 45.5263Z" fill="#1A0029"/>
<path d="M98.328 45.5263C98.0812 45.5263 97.8687 45.4211 97.6905 45.2106C97.5499 44.966 97.478 44.7183 97.478 44.4738C97.5124 43.9475 97.6374 43.6658 97.8499 43.6317C98.0968 43.5605 98.3812 43.5265 98.6999 43.5265C99.6937 43.5265 100.366 43.3686 100.722 43.0528C101.112 42.703 101.325 42.2448 101.359 41.6845C101.431 41.121 101.466 40.5421 101.466 39.9447V14.2374C101.466 13.6059 101.431 13.027 101.359 12.4976C101.325 11.9342 101.128 11.4977 100.775 11.1819C100.422 10.8321 99.7468 10.6556 98.753 10.6556C98.4343 10.6556 98.1312 10.6216 97.8499 10.5503C97.603 10.4451 97.478 10.1293 97.478 9.60304C97.478 9.07676 97.7624 8.761 98.328 8.65574C99.9593 8.41117 101.2 8.16351 102.05 7.91895C102.937 7.67438 103.609 7.46387 104.072 7.28741C104.534 7.11095 104.941 7.0057 105.294 6.97164C105.578 6.93759 105.806 6.99022 105.984 7.12953C106.197 7.26884 106.303 7.55055 106.303 7.97158V39.9478C106.303 40.5452 106.322 41.1241 106.356 41.6876C106.428 42.251 106.641 42.7061 106.994 43.0559C107.384 43.3717 108.075 43.5296 109.069 43.5296C109.387 43.5296 109.653 43.5636 109.866 43.6348C110.112 43.6689 110.256 43.9506 110.291 44.4769C110.291 44.7214 110.219 44.9691 110.078 45.2137C109.937 45.4242 109.725 45.5294 109.441 45.5294C108.412 45.4582 107.456 45.4056 106.569 45.3715H101.144C100.294 45.4056 99.353 45.4582 98.3249 45.5294L98.328 45.5263Z" fill="#1A0029"/>
<path d="M123.062 46C120.333 46 118.046 45.5264 116.202 44.5791C114.393 43.5946 113.49 42.1922 113.49 40.3657C113.49 39.3472 113.79 38.5206 114.393 37.8891C115.03 37.2576 115.846 36.9418 116.84 36.9418C117.477 36.9418 117.993 37.1183 118.38 37.4681C118.805 37.7838 119.018 38.0129 119.018 38.1522C119.018 38.2575 118.805 38.5021 118.38 38.889C117.99 39.2389 117.796 39.8209 117.796 40.6289C117.796 41.6133 118.255 42.4368 119.177 43.1055C120.133 43.737 121.571 44.0528 123.483 44.0528C125.149 44.0528 126.443 43.703 127.365 43.0002C128.321 42.2634 128.799 41.2449 128.799 39.9447C128.799 38.8921 128.446 38.0841 127.737 37.5207C127.062 36.9232 126.177 36.4496 125.077 36.0998C124.015 35.7499 122.862 35.397 121.621 35.0472C120.415 34.6974 119.265 34.2578 118.165 33.7315C117.065 33.2052 116.162 32.4839 115.452 31.5706C114.777 30.6233 114.443 29.3757 114.443 27.831C114.443 26.2862 114.921 24.9519 115.877 23.9334C116.833 22.9149 118.058 22.1595 119.546 21.6673C121.033 21.141 122.543 20.8779 124.065 20.8779C125.377 20.8779 126.618 21.0698 127.787 21.4568C128.955 21.8066 129.915 22.3515 130.658 23.0882C131.44 23.825 131.827 24.7569 131.827 25.8806C131.827 26.7598 131.543 27.5492 130.977 28.252C130.408 28.9547 129.63 29.3045 128.637 29.3045C127.999 29.3045 127.468 29.1467 127.043 28.8309C126.652 28.4811 126.458 28.2334 126.458 28.0941C126.458 28.0229 126.583 27.9022 126.83 27.7257C127.115 27.5152 127.38 27.2521 127.627 26.9363C127.874 26.5865 127.999 26.1469 127.999 25.6206C127.927 24.6021 127.43 23.8467 126.512 23.3545C125.59 22.8623 124.562 22.6177 123.427 22.6177C122.187 22.6177 121.033 22.9149 119.971 23.5124C118.908 24.1098 118.377 24.9705 118.377 26.0942C118.377 27.1127 118.59 27.9022 119.015 28.4656C119.474 29.029 120.183 29.5182 121.143 29.9392C122.137 30.3261 123.412 30.7657 124.971 31.2549C126.53 31.7471 127.896 32.2548 129.065 32.7811C130.271 33.3074 131.193 34.0101 131.83 34.8893C132.505 35.7314 132.84 36.8923 132.84 38.3659C132.84 39.8394 132.415 41.1582 131.565 42.3161C130.715 43.4739 129.543 44.3871 128.055 45.0558C126.602 45.6873 124.937 46.0031 123.055 46.0031L123.062 46Z" fill="#1A0029"/>
<path d="M18.5933 25.3977L19.9433 21.5187L22.0808 20.8655L24.1151 20.6859L22.4433 25.3977H18.5933Z" fill="#0F64AE"/>
<path d="M98.328 45.5263C98.0812 45.5263 97.8687 45.4211 97.6905 45.2106C97.5499 44.966 97.478 44.7183 97.478 44.4738C97.5124 43.9475 97.6374 43.6658 97.8499 43.6317C98.0968 43.5605 98.3812 43.5265 98.6999 43.5265C99.6937 43.5265 100.366 43.3686 100.722 43.0528C101.112 42.703 101.325 42.2448 101.359 41.6845C101.431 41.121 101.466 40.5421 101.466 39.9447V14.2374C101.466 13.6059 101.431 13.027 101.359 12.4976C101.325 11.9342 101.128 11.4977 100.775 11.1819C100.422 10.8321 99.7468 10.6556 98.753 10.6556C98.4343 10.6556 98.1312 10.6216 97.8499 10.5503C97.603 10.4451 97.478 10.1293 97.478 9.60304C97.478 9.07676 97.7624 8.761 98.328 8.65574C99.9593 8.41117 101.2 8.16351 102.05 7.91895C102.937 7.67438 103.609 7.46387 104.072 7.28741C104.531 7.11095 104.941 7.0057 105.294 6.97164C105.578 6.93759 105.806 6.99022 105.984 7.12953C106.197 7.26884 106.303 7.55055 106.303 7.97158V39.9478C106.303 40.5452 106.322 41.1241 106.356 41.6876C106.428 42.251 106.641 42.7061 106.994 43.0559C107.384 43.3717 108.075 43.5296 109.069 43.5296C109.387 43.5296 109.653 43.5636 109.866 43.6348C110.112 43.6689 110.256 43.9506 110.291 44.4769C110.291 44.7214 110.219 44.9691 110.078 45.2137C109.937 45.4242 109.725 45.5294 109.441 45.5294C108.412 45.4582 107.456 45.4056 106.569 45.3715H101.144C100.294 45.4056 99.353 45.4582 98.3249 45.5294L98.328 45.5263Z" fill="#1A0029"/>
<path d="M101.006 35.6168L89.728 0H99.7062L104.219 17.4694C104.447 18.3734 104.653 19.3424 104.834 20.3825C105.062 21.4196 105.269 22.3452 105.45 23.1594C105.631 23.9736 105.769 24.5587 105.859 24.9209H106.337C106.519 24.017 106.703 23.0913 106.884 22.144C107.112 21.1503 107.319 20.2246 107.5 19.3671C107.728 18.4632 107.887 17.7883 107.978 17.3363L112.284 0H122.197L126.641 17.4013C126.822 18.0328 127.006 18.8223 127.187 19.7727C127.369 20.6766 127.575 21.6023 127.803 22.5496C128.031 23.4535 128.212 24.243 128.35 24.9209H128.759C128.85 24.2894 128.987 23.5433 129.169 22.6858C129.397 21.8283 129.603 20.9491 129.784 20.0451C130.012 19.1411 130.219 18.33 130.4 17.6087L134.841 0H144L132.791 35.6168H123.016L119.05 19.7046C118.869 18.847 118.641 17.8997 118.366 16.8595C118.094 15.776 117.841 14.7142 117.612 13.6771C117.431 12.64 117.272 11.7361 117.134 10.9683H116.725C116.725 11.3738 116.634 12.0054 116.453 12.8629C116.272 13.674 116.044 14.6677 115.769 15.841C115.541 16.971 115.244 18.2557 114.881 19.7015L110.781 35.6137H101.006V35.6168Z" fill="#6D398B"/>
<path d="M130.665 23.0851C129.922 22.3483 128.662 21.7075 127.493 21.3577L128.006 23.3482C128.087 24.0076 127.934 24.5958 128.006 25.6143C128.006 26.1406 127.881 26.5802 127.634 26.93C127.387 27.2458 127.122 27.509 126.837 27.7195C126.59 27.8959 126.465 28.0167 126.465 28.0879C126.465 28.2272 126.659 28.4748 127.05 28.8247C127.475 29.1404 128.006 29.2983 128.643 29.2983C129.637 29.2983 130.415 28.9485 130.984 28.2457C131.553 27.543 131.834 26.7536 131.834 25.8744C131.834 24.7506 131.443 23.8188 130.665 23.082V23.0851Z" fill="#1A0029"/>
<path d="M73.1752 14.7637C72.1814 14.7637 71.3502 14.4665 70.6752 13.869C70.0002 13.2375 69.6658 12.4635 69.6658 11.5503C69.6658 10.7423 70.0721 10.024 70.8877 9.38941C71.7033 8.75788 72.6252 8.44211 73.6533 8.44211C74.5408 8.44211 75.2658 8.75788 75.8346 9.38941C76.4033 9.9869 76.6846 10.7577 76.6846 11.7081C76.6846 12.5502 76.3471 13.2715 75.6752 13.869C75.0002 14.4665 74.1689 14.7637 73.1752 14.7637ZM67.9096 45.5263C67.6627 45.5263 67.4502 45.421 67.2721 45.2105C67.1314 44.966 67.0596 44.7183 67.0596 44.4737C67.1314 43.9475 67.2721 43.6657 67.4846 43.6317C67.6971 43.5605 67.9814 43.5264 68.3346 43.5264C69.3283 43.5264 70.0002 43.3686 70.3564 43.0528C70.7096 42.703 70.9064 42.2448 70.9408 41.6844C71.0127 41.121 71.0471 40.5421 71.0471 39.9446V27.8804C71.0471 27.2489 71.0127 26.67 70.9408 26.1406C70.9064 25.5772 70.7096 25.1407 70.3564 24.8249C70.0033 24.4751 69.3283 24.2986 68.3346 24.2986C68.0158 24.2986 67.7127 24.2646 67.4314 24.1934C67.1846 24.0881 67.0596 23.7723 67.0596 23.2461C67.0596 22.7198 67.3439 22.404 67.9096 22.2988C69.5408 22.0542 70.7814 21.8065 71.6314 21.562C72.5189 21.3174 73.1908 21.1069 73.6533 20.9304C74.1127 20.754 74.5221 20.6487 74.8752 20.6147C75.1596 20.5806 75.3877 20.6332 75.5658 20.7725C75.7783 20.9119 75.8846 21.1936 75.8846 21.6146V39.9477C75.8846 40.5452 75.9033 41.1241 75.9377 41.6875C76.0096 42.251 76.2221 42.7061 76.5752 43.0559C76.9658 43.3716 77.6564 43.5295 78.6502 43.5295C78.9689 43.5295 79.2346 43.5636 79.4471 43.6348C79.6939 43.6688 79.8377 43.9506 79.8721 44.4768C79.8721 44.7214 79.8002 44.9691 79.6596 45.2136C79.5189 45.4241 79.3064 45.5294 79.0221 45.5294C77.9939 45.4582 77.0377 45.4056 76.1502 45.3715H70.7252C69.8752 45.4056 68.9346 45.4582 67.9064 45.5294L67.9096 45.5263Z" fill="#1A0029"/>
<path d="M63.4937 34.3544V27.6744H82.7342V34.3544H63.4937Z" fill="#09AA4A"/>
</svg>
