<svg width="800" height="800" viewBox="0 0 800 800" fill="none" xmlns="http://www.w3.org/2000/svg">
<rect width="800" height="800" rx="400" fill="black"/>
<path d="M393.341 158.689C249.879 166.198 155.178 278.899 161.162 421.015C163.775 483.221 188.74 536.747 194.654 595.785C196.167 611.078 191.766 629.953 209.372 636.635C231.035 644.833 264.253 631.055 282.409 618.449C288.599 614.247 294.513 609.356 299.052 603.293C317.827 615.762 335.64 627.818 357.991 633.191C456.406 656.82 564.243 602.742 612.178 515.874C702.271 352.678 580.473 148.907 393.341 158.689ZM337.634 499.272C329.863 505.334 322.367 513.601 313.77 518.354C301.322 525.036 297.471 518.079 292.794 507.057C278.076 471.992 276.288 412.266 284.885 375.549C296.439 325.605 335.021 281.654 388.045 276.97C441.688 272.217 491.48 299.496 513.969 348.751C563.761 458.353 436.324 566.576 337.634 499.341V499.272Z" fill="white"/>
</svg>
