<svg width="800" height="800" viewBox="0 0 800 800" fill="none" xmlns="http://www.w3.org/2000/svg">
<g clip-path="url(#clip0_623_4)">
<path d="M514.526 293.717L336.359 459.327C330.098 465.146 326.053 472.959 324.909 481.428L318.847 526.398C318.039 532.398 309.596 533.002 307.941 527.18L284.601 445.174C281.937 435.815 285.82 425.822 294.105 420.719L509.986 287.75C513.86 285.367 517.859 290.618 514.526 293.717ZM800 0V800H0V0H800ZM600.972 202.201L147.643 377.081C136.467 381.393 136.553 397.237 147.774 401.427L258.23 442.659L300.989 580.157C303.728 588.963 314.502 592.21 321.649 586.382L383.221 536.186C389.676 530.925 398.861 530.667 405.599 535.56L516.662 616.194C524.307 621.745 535.137 617.559 537.059 608.308L618.405 216.993C620.505 206.902 610.591 198.489 600.972 202.201Z" fill="black"/>
</g>
<defs>
<clipPath id="clip0_623_4">
<rect width="800" height="800" rx="400" fill="white"/>
</clipPath>
</defs>
</svg>
